<mxfile host="app.diagrams.net" modified="2022-06-12T17:03:17.854Z" agent="5.0 (Macintosh; Intel Mac OS X 10_15_7) AppleWebKit/537.36 (KHTML, like Gecko) Chrome/91.0.4472.114 Safari/537.36" etag="A3RvPGdYSFF3d3_Ti51H" version="20.0.0" type="github">
  <diagram id="uYjRr87PxaZmSaf9M_fl" name="Page-1">
    <mxGraphModel dx="786" dy="423" grid="1" gridSize="10" guides="1" tooltips="1" connect="1" arrows="1" fold="1" page="1" pageScale="1" pageWidth="850" pageHeight="1100" math="0" shadow="0">
      <root>
        <mxCell id="0" />
        <mxCell id="1" parent="0" />
        <mxCell id="f1P0R4RoqlQ674RsiMNU-2" value="Producer" style="rounded=1;whiteSpace=wrap;html=1;fillColor=#fff2cc;strokeColor=#d6b656;" parent="1" vertex="1">
          <mxGeometry x="60" y="90" width="120" height="60" as="geometry" />
        </mxCell>
        <mxCell id="f1P0R4RoqlQ674RsiMNU-3" value="Consumer" style="rounded=1;whiteSpace=wrap;html=1;fillColor=#fff2cc;strokeColor=#d6b656;" parent="1" vertex="1">
          <mxGeometry x="570" y="90" width="120" height="60" as="geometry" />
        </mxCell>
        <mxCell id="f1P0R4RoqlQ674RsiMNU-4" value="Queue" style="sketch=0;points=[[0,0,0],[0.25,0,0],[0.5,0,0],[0.75,0,0],[1,0,0],[0,1,0],[0.25,1,0],[0.5,1,0],[0.75,1,0],[1,1,0],[0,0.25,0],[0,0.5,0],[0,0.75,0],[1,0.25,0],[1,0.5,0],[1,0.75,0]];outlineConnect=0;fontColor=#232F3E;gradientColor=#FF4F8B;gradientDirection=north;fillColor=#BC1356;strokeColor=#ffffff;dashed=0;verticalLabelPosition=bottom;verticalAlign=top;align=center;html=1;fontSize=12;fontStyle=0;aspect=fixed;shape=mxgraph.aws4.resourceIcon;resIcon=mxgraph.aws4.sqs;" parent="1" vertex="1">
          <mxGeometry x="347" y="81" width="78" height="78" as="geometry" />
        </mxCell>
        <mxCell id="f1P0R4RoqlQ674RsiMNU-5" value="" style="endArrow=classic;html=1;rounded=0;exitX=1;exitY=0.5;exitDx=0;exitDy=0;" parent="1" source="f1P0R4RoqlQ674RsiMNU-2" target="f1P0R4RoqlQ674RsiMNU-4" edge="1">
          <mxGeometry width="50" height="50" relative="1" as="geometry">
            <mxPoint x="360" y="250" as="sourcePoint" />
            <mxPoint x="410" y="200" as="targetPoint" />
          </mxGeometry>
        </mxCell>
        <mxCell id="f1P0R4RoqlQ674RsiMNU-7" value="" style="shape=message;html=1;whiteSpace=wrap;html=1;outlineConnect=0;fillColor=#dae8fc;strokeColor=#6c8ebf;" parent="1" vertex="1">
          <mxGeometry x="230" y="81" width="50" height="30" as="geometry" />
        </mxCell>
        <mxCell id="f1P0R4RoqlQ674RsiMNU-8" value="" style="endArrow=classic;html=1;rounded=0;exitX=1;exitY=0.5;exitDx=0;exitDy=0;exitPerimeter=0;entryX=0;entryY=0.5;entryDx=0;entryDy=0;" parent="1" source="f1P0R4RoqlQ674RsiMNU-4" target="f1P0R4RoqlQ674RsiMNU-3" edge="1">
          <mxGeometry width="50" height="50" relative="1" as="geometry">
            <mxPoint x="360" y="250" as="sourcePoint" />
            <mxPoint x="410" y="200" as="targetPoint" />
          </mxGeometry>
        </mxCell>
        <mxCell id="f1P0R4RoqlQ674RsiMNU-9" value="" style="shape=message;html=1;whiteSpace=wrap;html=1;outlineConnect=0;fillColor=#dae8fc;strokeColor=#6c8ebf;" parent="1" vertex="1">
          <mxGeometry x="480" y="81" width="50" height="30" as="geometry" />
        </mxCell>
        <mxCell id="f1P0R4RoqlQ674RsiMNU-11" value="&lt;span style=&quot;&quot;&gt;Message Queuing ( Point-To-Point, Request-Response Technique )&amp;nbsp;&lt;/span&gt;" style="text;html=1;align=center;verticalAlign=middle;resizable=0;points=[];autosize=1;strokeColor=none;fillColor=none;fontSize=18;" parent="1" vertex="1">
          <mxGeometry x="60" y="20" width="560" height="30" as="geometry" />
        </mxCell>
        <mxCell id="f1P0R4RoqlQ674RsiMNU-12" value="&lt;span style=&quot;&quot;&gt;Publisher Subscriber Model&amp;nbsp;&lt;/span&gt;" style="text;html=1;align=center;verticalAlign=middle;resizable=0;points=[];autosize=1;strokeColor=none;fillColor=none;fontSize=18;" parent="1" vertex="1">
          <mxGeometry x="220" y="280" width="240" height="30" as="geometry" />
        </mxCell>
        <mxCell id="f1P0R4RoqlQ674RsiMNU-13" value="Producer" style="rounded=1;whiteSpace=wrap;html=1;fillColor=#fff2cc;strokeColor=#d6b656;" parent="1" vertex="1">
          <mxGeometry x="70" y="363" width="120" height="60" as="geometry" />
        </mxCell>
        <mxCell id="H2nmLwzdAe2w84D16vkS-1" value="Channel/Pool" style="strokeWidth=1;outlineConnect=0;dashed=0;align=center;html=1;fontSize=8;shape=mxgraph.eip.messageChannel;verticalLabelPosition=bottom;labelBackgroundColor=#ffffff;verticalAlign=top;fillColor=#f8cecc;strokeColor=#b85450;" parent="1" vertex="1">
          <mxGeometry x="280" y="380" width="180" height="40" as="geometry" />
        </mxCell>
        <mxCell id="H2nmLwzdAe2w84D16vkS-3" value="Consumer/Subscriber" style="rounded=1;whiteSpace=wrap;html=1;fillColor=#fff2cc;strokeColor=#d6b656;" parent="1" vertex="1">
          <mxGeometry x="560" y="300" width="150" height="60" as="geometry" />
        </mxCell>
        <mxCell id="H2nmLwzdAe2w84D16vkS-4" value="Consumer/Subscriber" style="rounded=1;whiteSpace=wrap;html=1;fillColor=#fff2cc;strokeColor=#d6b656;" parent="1" vertex="1">
          <mxGeometry x="560" y="390" width="150" height="60" as="geometry" />
        </mxCell>
        <mxCell id="H2nmLwzdAe2w84D16vkS-5" value="Consumer/Subscriber" style="rounded=1;whiteSpace=wrap;html=1;fillColor=#fff2cc;strokeColor=#d6b656;" parent="1" vertex="1">
          <mxGeometry x="560" y="480" width="150" height="60" as="geometry" />
        </mxCell>
        <mxCell id="H2nmLwzdAe2w84D16vkS-6" value="" style="endArrow=classic;html=1;rounded=0;exitX=0;exitY=0.5;exitDx=0;exitDy=0;entryX=1;entryY=0.5;entryDx=-2.7;entryDy=0;entryPerimeter=0;edgeStyle=orthogonalEdgeStyle;" parent="1" source="H2nmLwzdAe2w84D16vkS-3" target="H2nmLwzdAe2w84D16vkS-1" edge="1">
          <mxGeometry width="50" height="50" relative="1" as="geometry">
            <mxPoint x="380" y="330" as="sourcePoint" />
            <mxPoint x="430" y="280" as="targetPoint" />
          </mxGeometry>
        </mxCell>
        <mxCell id="H2nmLwzdAe2w84D16vkS-7" value="" style="endArrow=classic;html=1;rounded=0;exitX=0;exitY=0.5;exitDx=0;exitDy=0;entryX=1;entryY=0.5;entryDx=-2.7;entryDy=0;entryPerimeter=0;edgeStyle=orthogonalEdgeStyle;" parent="1" source="H2nmLwzdAe2w84D16vkS-4" target="H2nmLwzdAe2w84D16vkS-1" edge="1">
          <mxGeometry width="50" height="50" relative="1" as="geometry">
            <mxPoint x="380" y="330" as="sourcePoint" />
            <mxPoint x="430" y="280" as="targetPoint" />
          </mxGeometry>
        </mxCell>
        <mxCell id="H2nmLwzdAe2w84D16vkS-8" value="" style="endArrow=classic;html=1;rounded=0;exitX=0;exitY=0.5;exitDx=0;exitDy=0;edgeStyle=elbowEdgeStyle;" parent="1" source="H2nmLwzdAe2w84D16vkS-5" edge="1">
          <mxGeometry width="50" height="50" relative="1" as="geometry">
            <mxPoint x="370" y="410" as="sourcePoint" />
            <mxPoint x="440" y="420" as="targetPoint" />
          </mxGeometry>
        </mxCell>
        <mxCell id="H2nmLwzdAe2w84D16vkS-9" value="Long Pooling" style="text;html=1;strokeColor=none;fillColor=none;align=center;verticalAlign=middle;whiteSpace=wrap;rounded=0;" parent="1" vertex="1">
          <mxGeometry x="450" y="300" width="60" height="30" as="geometry" />
        </mxCell>
        <mxCell id="H2nmLwzdAe2w84D16vkS-10" value="Long Pooling" style="text;html=1;strokeColor=none;fillColor=none;align=center;verticalAlign=middle;whiteSpace=wrap;rounded=0;" parent="1" vertex="1">
          <mxGeometry x="460" y="367" width="60" height="30" as="geometry" />
        </mxCell>
        <mxCell id="H2nmLwzdAe2w84D16vkS-11" value="Long Pooling" style="text;html=1;strokeColor=none;fillColor=none;align=center;verticalAlign=middle;whiteSpace=wrap;rounded=0;" parent="1" vertex="1">
          <mxGeometry x="440" y="420" width="60" height="30" as="geometry" />
        </mxCell>
        <mxCell id="H2nmLwzdAe2w84D16vkS-12" value="" style="endArrow=classic;html=1;rounded=0;exitX=0.992;exitY=0.617;exitDx=0;exitDy=0;exitPerimeter=0;entryX=0;entryY=0.5;entryDx=2.7;entryDy=0;entryPerimeter=0;" parent="1" source="f1P0R4RoqlQ674RsiMNU-13" target="H2nmLwzdAe2w84D16vkS-1" edge="1">
          <mxGeometry width="50" height="50" relative="1" as="geometry">
            <mxPoint x="370" y="280" as="sourcePoint" />
            <mxPoint x="420" y="230" as="targetPoint" />
          </mxGeometry>
        </mxCell>
        <mxCell id="H2nmLwzdAe2w84D16vkS-13" value="" style="shape=message;html=1;whiteSpace=wrap;html=1;outlineConnect=0;fillColor=#dae8fc;strokeColor=#6c8ebf;" parent="1" vertex="1">
          <mxGeometry x="210" y="363" width="50" height="30" as="geometry" />
        </mxCell>
        <mxCell id="H2nmLwzdAe2w84D16vkS-14" value="" style="shape=message;html=1;whiteSpace=wrap;html=1;outlineConnect=0;fillColor=#dae8fc;strokeColor=#6c8ebf;" parent="1" vertex="1">
          <mxGeometry x="400" y="360" width="40" height="20" as="geometry" />
        </mxCell>
        <mxCell id="-ZLB94iu9DdYsNvbNoc4-1" value="Push Message" style="text;html=1;strokeColor=none;fillColor=none;align=center;verticalAlign=middle;whiteSpace=wrap;rounded=0;" vertex="1" parent="1">
          <mxGeometry x="470" y="120" width="60" height="30" as="geometry" />
        </mxCell>
      </root>
    </mxGraphModel>
  </diagram>
</mxfile>
